<svg xmlns="http://www.w3.org/2000/svg">
  <symbol id="rss" viewBox="0 0 24 24"><rect x="0" y="0" fill="none" stroke="none" />
    <path fill="currentColor" d="M6.18 15.64a2.18 2.18 0 0 1 2.18 2.18C8.36 19 7.38 20 6.18 20C5 20 4 19 4 17.82a2.18 2.18 0 0 1 2.18-2.18M4 4.44A15.56 15.56 0 0 1 19.56 20h-2.83A12.73 12.73 0 0 0 4 7.27V4.44m0 5.66a9.9 9.9 0 0 1 9.9 9.9h-2.83A7.07 7.07 0 0 0 4 12.93V10.1Z"/>
  </symbol>

  <symbol id="darkMode" viewBox="0 0 24 24"><rect x="0" y="0" fill="none" stroke="none" />
    <path fill="currentColor" d="M12 21q-3.775 0-6.388-2.613T3 12q0-3.45 2.25-5.988T11 3.05q.625-.075.975.45t-.025 1.1q-.425.65-.638 1.375T11.1 7.5q0 2.25 1.575 3.825T16.5 12.9q.775 0 1.538-.225t1.362-.625q.525-.35 1.075-.037t.475.987q-.35 3.45-2.937 5.725T12 21Zm0-2q2.2 0 3.95-1.213t2.55-3.162q-.5.125-1 .2t-1 .075q-3.075 0-5.238-2.163T9.1 7.5q0-.5.075-1t.2-1q-1.95.8-3.163 2.55T5 12q0 2.9 2.05 4.95T12 19Zm-.25-6.75Z"/>
  </symbol>

  <symbol id="lightMode" viewBox="0 0 24 24"><rect x="0" y="0" fill="none" stroke="none" />
    <path fill="currentColor" d="M12 15q1.25 0 2.125-.875T15 12q0-1.25-.875-2.125T12 9q-1.25 0-2.125.875T9 12q0 1.25.875 2.125T12 15Zm0 2q-2.075 0-3.538-1.463T7 12q0-2.075 1.463-3.538T12 7q2.075 0 3.538 1.463T17 12q0 2.075-1.463 3.538T12 17ZM2 13q-.425 0-.713-.288T1 12q0-.425.288-.713T2 11h2q.425 0 .713.288T5 12q0 .425-.288.713T4 13H2Zm18 0q-.425 0-.713-.288T19 12q0-.425.288-.713T20 11h2q.425 0 .713.288T23 12q0 .425-.288.713T22 13h-2Zm-8-8q-.425 0-.713-.288T11 4V2q0-.425.288-.713T12 1q.425 0 .713.288T13 2v2q0 .425-.288.713T12 5Zm0 18q-.425 0-.713-.288T11 22v-2q0-.425.288-.713T12 19q.425 0 .713.288T13 20v2q0 .425-.288.713T12 23ZM5.65 7.05L4.575 6q-.3-.275-.288-.7t.288-.725q.3-.3.725-.3t.7.3L7.05 5.65q.275.3.275.7t-.275.7q-.275.3-.687.288T5.65 7.05ZM18 19.425l-1.05-1.075q-.275-.3-.275-.713t.275-.687q.275-.3.688-.287t.712.287L19.425 18q.3.275.288.7t-.288.725q-.3.3-.725.3t-.7-.3ZM16.95 7.05q-.3-.275-.288-.687t.288-.713L18 4.575q.275-.3.7-.288t.725.288q.3.3.3.725t-.3.7L18.35 7.05q-.3.275-.7.275t-.7-.275ZM4.575 19.425q-.3-.3-.3-.725t.3-.7l1.075-1.05q.3-.275.712-.275t.688.275q.3.275.288.688t-.288.712L6 19.425q-.275.3-.7.288t-.725-.288ZM12 12Z"/>
  </symbol>

  <symbol id="chevronLeft" viewBox="0 0 24 24"><rect x="0" y="0" fill="none" stroke="none" />
    <path fill="currentColor" d="M15.41 16.58L10.83 12l4.58-4.59L14 6l-6 6l6 6l1.41-1.42Z"/>
  </symbol>

  <symbol id="chevronRight" viewBox="0 0 24 24"><rect x="0" y="0" fill="none" stroke="none" />
    <path fill="currentColor" d="M8.59 16.58L13.17 12L8.59 7.41L10 6l6 6l-6 6l-1.41-1.42Z"/>
  </symbol>

  <symbol id="published" viewBox="0 0 50 50"><rect x="0" y="0" fill="none" stroke="none" />
    <path fill="currentColor" d="M27.257813 1.007813C26.824219 0.964844 26.378906 1.042969 25.976563 1.179688C25.175781 1.445313 24.390625 1.960938 23.675781 2.675781C22.960938 3.386719 22.445313 4.175781 22.179688 4.976563C21.914063 5.773438 21.867188 6.753906 22.558594 7.445313C23.460938 8.347656 23.996094 9.285156 24.339844 10.25C24.3125 10.273438 24.285156 10.296875 24.265625 10.324219L13.359375 22.222656C13.355469 22.222656 13.351563 22.226563 13.351563 22.226563C13.179688 22.371094 13.058594 22.566406 13.011719 22.785156L9.148438 32.445313C8.992188 32.671875 8.9375 32.949219 8.992188 33.214844C9.050781 33.480469 9.210938 33.714844 9.445313 33.859375L16 40.414063L16 43.03125C13.148438 43.164063 11.046875 43.855469 9.628906 44.585938C8.835938 44.992188 8.257813 45.40625 7.859375 45.734375C7.664063 45.902344 7.511719 46.046875 7.398438 46.160156C7.34375 46.21875 7.300781 46.269531 7.257813 46.324219C7.234375 46.351563 7.210938 46.375 7.179688 46.421875C7.167969 46.445313 7.148438 46.46875 7.117188 46.527344C7.105469 46.554688 7.085938 46.585938 7.0625 46.648438C7.054688 46.679688 7.027344 46.769531 7.027344 46.769531C7.027344 46.773438 7 47 7 47L7 48C7 48.550781 7.449219 49 8 49L26 49C26.550781 49 27 48.550781 27 48L27 47C27 46.761719 26.914063 46.53125 26.761719 46.347656C26.761719 46.347656 25.953125 45.433594 24.375 44.613281C22.957031 43.878906 20.855469 43.167969 18 43.03125L18 40.535156L23.554688 36.832031C23.816406 36.65625 23.980469 36.367188 24 36.054688C24.015625 35.738281 23.882813 35.433594 23.640625 35.234375L18.3125 30.792969L22.769531 23.65625C22.960938 23.429688 23.046875 23.132813 23 22.84375L23 15C23 14.898438 22.988281 14.800781 22.957031 14.703125L24.839844 12.65625C24.882813 13.082031 24.925781 13.511719 24.953125 13.953125C25.097656 16.300781 25.085938 18.914063 27.085938 20.914063C27.136719 20.96875 27.195313 21.015625 27.257813 21.054688C28.570313 22.207031 30.515625 22.207031 32.445313 21.5625C34.457031 20.890625 36.613281 19.507813 38.5625 17.5625C40.507813 15.613281 41.890625 13.457031 42.5625 11.445313C43.203125 9.523438 43.207031 7.589844 42.074219 6.28125C42.03125 6.214844 41.980469 6.152344 41.921875 6.097656C41.921875 6.09375 41.917969 6.089844 41.914063 6.085938C41.90625 6.078125 41.902344 6.074219 41.894531 6.070313C41.894531 6.066406 41.890625 6.066406 41.890625 6.0625C41.886719 6.0625 41.882813 6.058594 41.878906 6.054688C41.859375 6.039063 41.835938 6.023438 41.816406 6.007813C41.664063 5.863281 41.503906 5.734375 41.332031 5.625C39.164063 3.976563 36.804688 4.039063 34.769531 4C32.5625 3.957031 30.660156 3.851563 28.453125 1.570313C28.109375 1.214844 27.691406 1.050781 27.257813 1.007813 Z M 27.015625 2.960938C29.636719 5.667969 32.429688 5.957031 34.730469 6C34.882813 6.003906 35.015625 6.007813 35.164063 6.007813C34.398438 6.375 33.628906 6.839844 32.863281 7.382813C32.859375 7.386719 32.855469 7.386719 32.851563 7.390625C32.734375 7.445313 32.632813 7.523438 32.546875 7.621094C32.542969 7.621094 32.542969 7.621094 32.542969 7.625C31.828125 8.160156 31.121094 8.757813 30.4375 9.4375C29.734375 10.144531 29.113281 10.878906 28.566406 11.621094C28.527344 11.660156 28.492188 11.707031 28.457031 11.753906C27.863281 12.578125 27.363281 13.414063 26.972656 14.234375C26.964844 14.097656 26.957031 13.976563 26.949219 13.832031C26.800781 11.410156 26.453125 8.511719 23.96875 6.03125C24.042969 6.101563 23.941406 6.019531 24.078125 5.609375C24.214844 5.195313 24.566406 4.609375 25.089844 4.089844C25.613281 3.566406 26.195313 3.214844 26.609375 3.074219C27.027344 2.933594 27.09375 3.042969 27.015625 2.960938 Z M 38.808594 7.007813C39.417969 6.976563 39.898438 7.089844 40.246094 7.304688C40.332031 7.375 40.421875 7.4375 40.515625 7.515625C41.046875 8.066406 41.203125 9.199219 40.667969 10.8125C40.125 12.441406 38.902344 14.390625 37.144531 16.144531C35.390625 17.902344 33.441406 19.125 31.8125 19.667969C30.183594 20.207031 29.042969 20.042969 28.5 19.5C27.957031 18.957031 27.792969 17.816406 28.332031 16.1875C28.558594 15.511719 28.929688 14.769531 29.378906 14.019531C30.082031 14.628906 31 15 32 15C34.199219 15 36 13.199219 36 11C36 10 35.628906 9.082031 35.019531 8.378906C35.769531 7.929688 36.511719 7.558594 37.1875 7.335938C37.796875 7.128906 38.339844 7.027344 38.808594 7.007813 Z M 33.347656 9.53125C33.746094 9.894531 34 10.410156 34 11C34 12.117188 33.117188 13 32 13C31.410156 13 30.894531 12.746094 30.53125 12.347656C30.929688 11.84375 31.367188 11.339844 31.855469 10.855469C32.339844 10.367188 32.84375 9.929688 33.347656 9.53125 Z M 21 16.84375L21 22L16.273438 22 Z M 14.675781 24L20.195313 24L16.355469 30.144531L11.6875 31.480469 Z M 16.765625 32.105469L21.332031 35.910156L17.125 38.714844L11.90625 33.496094 Z M 16.863281 45.003906C16.957031 45.015625 17.046875 45.015625 17.136719 45.003906C20.121094 45.023438 22.164063 45.71875 23.453125 46.386719C24.089844 46.714844 24.035156 46.773438 24.320313 47L9.5625 47C9.835938 46.800781 10.085938 46.601563 10.542969 46.363281C11.832031 45.703125 13.875 45.023438 16.863281 45.003906Z"/>
  </symbol>

  <symbol id="updated" viewBox="0 0 50 50"><rect x="0" y="0" fill="none" stroke="none" />
    <path fill="currentColor" d="M30 1C24.488281 1 20 5.488281 20 11C20 14.414063 21.730469 17.429688 24.355469 19.234375L16.503906 25.121094C16.503906 25.121094 16.5 25.121094 16.5 25.125C16.28125 25.246094 16.113281 25.449219 16.035156 25.6875L12.1875 33.390625C12.003906 33.625 11.933594 33.925781 11.996094 34.214844C12.054688 34.503906 12.242188 34.753906 12.503906 34.890625L19 40.460938L19 43.03125C16.148438 43.164063 14.046875 43.855469 12.628906 44.585938C11.835938 44.992188 11.257813 45.40625 10.859375 45.734375C10.664063 45.902344 10.511719 46.046875 10.402344 46.160156C10.34375 46.21875 10.300781 46.269531 10.253906 46.324219C10.234375 46.351563 10.210938 46.375 10.183594 46.421875C10.167969 46.445313 10.148438 46.46875 10.121094 46.527344C10.105469 46.554688 10.085938 46.585938 10.0625 46.648438C10.054688 46.679688 10.027344 46.769531 10.027344 46.769531C10.027344 46.773438 10 47 10 47L10 48C10 48.550781 10.449219 49 11 49L29 49C29.550781 49 30 48.550781 30 48L30 47C30 46.761719 29.914063 46.53125 29.761719 46.347656C29.761719 46.347656 28.953125 45.433594 27.375 44.613281C25.957031 43.878906 23.855469 43.167969 21 43.03125L21 40.535156L26.554688 36.832031C26.832031 36.648438 27 36.335938 27 36C27 35.664063 26.832031 35.351563 26.554688 35.167969L21.570313 31.84375L24.558594 28.859375C24.6875 28.777344 24.796875 28.667969 24.875 28.535156L27.707031 25.707031C27.894531 25.519531 28 25.265625 28 25L28 20.796875C28.648438 20.929688 29.316406 21 30 21C35.511719 21 40 16.511719 40 11C40 5.488281 35.511719 1 30 1 Z M 30 3C34.429688 3 38 6.570313 38 11C38 15.429688 34.429688 19 30 19C25.570313 19 22 15.429688 22 11C22 6.570313 25.570313 3 30 3 Z M 30 7C27.800781 7 26 8.800781 26 11C26 13.199219 27.800781 15 30 15C32.199219 15 34 13.199219 34 11C34 8.800781 32.199219 7 30 7 Z M 30 9C31.117188 9 32 9.882813 32 11C32 12.117188 31.117188 13 30 13C28.882813 13 28 12.117188 28 11C28 9.882813 28.882813 9 30 9 Z M 26 20.15625L26 24.585938L23.707031 26.875L19.210938 25.59375L25.597656 20.800781C25.8125 20.648438 25.953125 20.414063 26 20.15625 Z M 17.523438 27.1875L22.09375 28.496094L19.476563 31.109375L14.910156 32.414063 Z M 19.828125 33.089844L24.199219 36L20.078125 38.75L15.0625 34.449219 Z M 19.863281 45.003906C19.957031 45.015625 20.046875 45.015625 20.136719 45.003906C23.121094 45.023438 25.164063 45.71875 26.453125 46.386719C27.089844 46.714844 27.035156 46.773438 27.320313 47L12.5625 47C12.835938 46.800781 13.085938 46.601563 13.542969 46.363281C14.832031 45.703125 16.875 45.023438 19.863281 45.003906Z" />

  <symbol id="read-time" viewBox="0 0 32 32"><rect x="0" y="0" fill="none" stroke="none" />
    <path fill="currentColor" d="M6.443,7.799C6.436,7.808,6.43,7.816,6.423,7.825C6.422,7.826,6.42,7.828,6.419,7.83 C6.427,7.82,6.435,7.81,6.443,7.799z M6.171,8.152C6.19,8.128,6.208,8.104,6.227,8.079C6.25,8.05,6.272,8.02,6.295,7.99 C6.254,8.044,6.212,8.098,6.171,8.152z M22.837,7.752c-0.01-0.008-0.02-0.015-0.03-0.023c0.013,0.01,0.027,0.021,0.04,0.031 C22.844,7.758,22.841,7.755,22.837,7.752z M28.997,15.885c0.014,0.405-0.032,0.816-0.086,1.217c-0.058,0.439-0.117,0.886-0.22,1.316 c-0.405,1.698-1.097,3.324-2.037,4.794c-0.247,0.385-0.526,0.745-0.807,1.106c-0.241,0.31-0.492,0.636-0.776,0.909 c-0.63,0.607-1.329,1.125-2.094,1.552c-0.396,0.222-0.794,0.43-1.214,0.607c-0.384,0.16-0.776,0.301-1.172,0.43 c-0.837,0.274-1.7,0.398-2.571,0.506c-0.803,0.097-1.61,0.18-2.42,0.173c-0.868-0.009-1.727-0.11-2.579-0.274 c-0.789-0.153-1.601-0.295-2.352-0.587c-0.445-0.171-0.906-0.349-1.313-0.598c-0.328-0.202-0.646-0.414-0.958-0.641 c-0.69-0.502-1.417-0.992-1.997-1.624C6.115,24.46,5.85,24.13,5.582,23.802C5.298,23.457,5,23.116,4.747,22.745 c-0.245-0.356-0.484-0.717-0.677-1.104C3.866,21.233,3.7,20.804,3.54,20.377c-0.31-0.818-0.511-1.709-0.535-2.584 c-0.022-0.841,0.025-1.684,0.119-2.519c0.056-0.488,0.128-0.971,0.24-1.45c0.094-0.396,0.209-0.803,0.353-1.183 c0.317-0.834,0.701-1.633,1.127-2.413c0.411-0.75,0.866-1.469,1.383-2.149c0.065-0.085,0.131-0.17,0.196-0.255 c0.134-0.171,0.27-0.34,0.409-0.508C7.399,6.62,8.127,6.088,8.847,5.559c0.655-0.481,1.378-0.902,2.123-1.232 c0.268-0.121,0.538-0.234,0.814-0.34c0.176-0.068,0.362-0.14,0.547-0.185c0.448-0.114,0.895-0.196,1.356-0.247 c0.313-0.033,0.627-0.05,0.941-0.05c0.115,0,0.231,0.002,0.347,0.007c0.551,0.023,1.095,0.092,1.642,0.167 c0.025,0.003,0.049,0.009,0.074,0.018c0.112-0.061,0.24-0.098,0.357-0.084c0.555,0.065,1.1,0.162,1.637,0.312 c0.421,0.115,0.832,0.258,1.246,0.396c0.821,0.272,1.633,0.56,2.364,1.034c0.728,0.47,1.45,0.958,2.121,1.509 c0.618,0.504,1.228,1.012,1.774,1.597c0.315,0.339,0.628,0.699,0.879,1.091c0.227,0.351,0.423,0.719,0.594,1.098 c0.376,0.837,0.717,1.698,0.962,2.582C28.864,14.094,28.965,14.993,28.997,15.885z M27.438,15.971 c-0.003-0.315-0.039-0.628-0.078-0.939c-0.097-0.547-0.225-1.084-0.392-1.615c-0.144-0.464-0.332-0.916-0.518-1.366 c-0.141-0.322-0.287-0.641-0.453-0.95c-0.164-0.308-0.347-0.596-0.549-0.876c-0.754-0.933-1.658-1.727-2.6-2.465 c0.009,0.007,0.018,0.014,0.027,0.02c-0.012-0.01-0.025-0.019-0.038-0.029c-0.044-0.034-0.088-0.068-0.132-0.103 c0.034,0.026,0.068,0.053,0.102,0.08c-0.722-0.555-1.464-1.118-2.295-1.497c-0.521-0.209-1.053-0.395-1.583-0.576 c-0.605-0.206-1.226-0.384-1.859-0.478c-0.008-0.001-0.015-0.002-0.023-0.003c-0.104-0.013-0.199-0.029-0.287-0.061 c-0.181,0.092-0.354,0.085-0.556,0.057c-0.044-0.007-0.087-0.013-0.132-0.019c-0.211-0.027-0.424-0.055-0.637-0.082 c-0.234-0.031-0.477-0.027-0.713-0.04c-0.391-0.02-0.785,0.023-1.173,0.06c-0.273,0.046-0.553,0.087-0.815,0.175 c-0.257,0.086-0.508,0.177-0.76,0.276c-0.483,0.224-0.949,0.468-1.406,0.741c-0.435,0.26-0.844,0.556-1.248,0.858 C9.052,7.35,8.778,7.557,8.544,7.799C8.265,8.088,8.004,8.385,7.75,8.695c-0.439,0.583-0.849,1.181-1.206,1.818 c-0.366,0.649-0.697,1.313-0.998,1.993c-0.302,0.763-0.535,1.547-0.678,2.357c-0.138,1.11-0.224,2.243-0.111,3.356 c0.068,0.412,0.15,0.824,0.276,1.222c0.118,0.374,0.254,0.741,0.397,1.107c0.261,0.578,0.591,1.111,0.968,1.624 c0.293,0.374,0.588,0.749,0.899,1.106c0.326,0.374,0.677,0.707,1.062,1.017c0.414,0.308,0.833,0.613,1.259,0.904 c0.212,0.148,0.429,0.294,0.657,0.418c0.207,0.112,0.417,0.213,0.63,0.31c0.579,0.22,1.166,0.384,1.774,0.515 c0.601,0.129,1.204,0.25,1.813,0.336c1.344,0.158,2.702,0.023,4.04-0.144c0.941-0.143,1.845-0.409,2.727-0.764 c0.707-0.33,1.389-0.712,2.022-1.167c0.33-0.267,0.641-0.541,0.934-0.851c0.269-0.286,0.518-0.594,0.761-0.905 c0.611-0.831,1.124-1.714,1.54-2.656c0.213-0.534,0.388-1.082,0.555-1.632c0.149-0.494,0.238-1.001,0.309-1.511 C27.423,16.754,27.441,16.365,27.438,15.971z M20.349,12.77c-0.297-0.297-0.821-0.313-1.115,0c-0.074,0.08-0.139,0.168-0.205,0.256 c-0.167,0.198-0.365,0.369-0.543,0.558c-0.267,0.283-0.538,0.562-0.816,0.836c-0.313,0.31-0.632,0.61-0.974,0.893 c-0.049,0.041-0.098,0.082-0.147,0.123c-0.002-0.193-0.005-0.386-0.012-0.579c-0.023-0.646-0.07-1.293-0.081-1.939 c-0.013-0.7-0.016-1.401,0-2.102c0.007-0.36,0.031-0.72,0.049-1.08c0.02-0.434,0.014-0.866,0-1.298 c-0.014-0.47-0.38-0.863-0.863-0.863c-0.456,0-0.884,0.393-0.864,0.863c0.022,0.477,0.04,0.951,0.034,1.43 c-0.005,0.393-0.02,0.785-0.034,1.179c-0.029,0.782-0.045,1.567-0.027,2.348c0.018,0.74,0.101,1.477,0.13,2.217 c0.014,0.322,0.022,0.648,0.054,0.969c0.032,0.315,0.094,0.578,0.312,0.823c0.115,0.132,0.283,0.223,0.45,0.268 c0.288,0.074,0.578-0.012,0.825-0.166c0.256-0.16,0.484-0.391,0.708-0.593c0.169-0.151,0.34-0.299,0.515-0.445 c0.366-0.308,0.717-0.637,1.055-0.978c0.295-0.299,0.589-0.601,0.884-0.902c0.108-0.108,0.218-0.218,0.328-0.324 c0.145-0.14,0.263-0.296,0.385-0.455C20.635,13.497,20.637,13.056,20.349,12.77z M20.409,13.797 c-0.003,0.005-0.007,0.008-0.011,0.013c-0.002,0.003-0.003,0.006-0.006,0.009C20.398,13.811,20.403,13.804,20.409,13.797z M20.349,13.885c0.019-0.02,0.026-0.045,0.043-0.067c-0.027,0.036-0.054,0.071-0.081,0.106 C20.323,13.91,20.336,13.897,20.349,13.885z M7.004,16.224c-0.427,0-0.783,0.357-0.783,0.783c0,0.427,0.357,0.783,0.783,0.783 s0.783-0.356,0.783-0.783C7.787,16.58,7.431,16.224,7.004,16.224z M15.876,23.756c-0.427,0-0.783,0.357-0.783,0.783 s0.357,0.783,0.783,0.783c0.427,0,0.783-0.356,0.783-0.783S16.303,23.756,15.876,23.756z M24.766,16.385 c-0.427,0-0.783,0.356-0.783,0.783s0.357,0.783,0.783,0.783c0.427,0,0.783-0.357,0.783-0.783S25.192,16.385,24.766,16.385z"/>
  </symbol>

</svg>